<svg width="567" height="100" viewBox="0 0 567 222" fill="none" xmlns="http://www.w3.org/2000/svg">
<path d="M9.25 37H212.75V87.5882L207.478 90.095C203.517 91.9679 200.171 94.927 197.827 98.6279C195.483 102.329 194.239 106.619 194.239 111C194.239 115.381 195.483 119.671 197.827 123.372C200.171 127.073 203.517 130.032 207.478 131.905L212.75 134.412V185H9.25V134.412L14.5225 131.905C18.4826 130.032 21.8292 127.073 24.1729 123.372C26.5166 119.671 27.7608 115.381 27.7608 111C27.7608 106.619 26.5166 102.329 24.1729 98.6279C21.8292 94.927 18.4826 91.9679 14.5225 90.095L9.25 87.5975V37ZM27.75 55.5V76.3865C38.8963 83.842 46.25 96.5515 46.25 111C46.2505 117.846 44.5625 124.586 41.3355 130.624C38.1086 136.662 33.4423 141.81 27.75 145.613V166.5H194.25V145.613C188.558 141.81 183.891 136.662 180.664 130.624C177.437 124.586 175.749 117.846 175.75 111C175.75 96.5608 183.104 83.842 194.25 76.3865V55.5H27.75ZM74 83.25H148V101.75H74V83.25ZM74 120.25H148V138.75H74V120.25Z" fill="#DE5656"/>
<path d="M250.848 94.56V134H242.768V78H249.328L267.808 105.2L286.288 78H292.688V134H284.688V94.56L270.048 116.32H265.488L250.848 94.56ZM303.731 78H324.211C336.291 78 342.371 87.36 342.371 96.72C342.371 106.08 336.291 115.36 324.211 115.36H311.891V134H303.731V78ZM311.891 107.36H324.211C331.011 107.36 334.371 102.08 334.371 96.8C334.371 91.44 331.011 86.16 324.211 86.16H311.891V107.36ZM358.718 78.08V125.92H385.038V134H350.638V78.08H358.718ZM402.135 134.24H394.055V86.16H377.095V78H419.015V86.16H402.135V134.24ZM455.489 78.08V86.08H445.089V125.92H455.489V134H426.609V125.92H437.009V86.08H426.609V78.08H455.489ZM462.363 106.16C462.363 98.24 465.563 91.2 470.363 86.08C475.243 81.04 482.123 77.76 489.723 77.76C502.523 77.76 512.603 85.76 515.803 98.4H507.803C504.843 90 497.963 85.76 489.723 85.76C484.363 85.76 479.483 88.08 475.963 91.76C472.443 95.44 470.203 100.4 470.203 106.16C470.203 111.76 472.443 116.72 475.963 120.4C479.483 124.08 484.363 126.4 489.723 126.4C498.203 126.4 505.403 121.52 508.283 113.04H516.203C513.003 125.76 502.763 134.4 489.723 134.4C482.123 134.4 475.243 131.2 470.363 126.08C465.563 120.96 462.363 113.92 462.363 106.16ZM525.08 78.08H533.08V134H525.08V78.08ZM534.6 108.08V104L554.12 78.08H564.28L542.92 105.84L566.52 134H555.96L534.6 108.08Z" fill="#923838"/>
</svg>
